solid w
  facet normal 0 0 1
    outer loop
      vertex 60 0 0
      vertex 51.599999999999994 85.19999999999999 0
      vertex 38.400000000000006 18 0
    endloop
  endfacet
  facet normal 0 0 -1
    outer loop
      vertex 38.400000000000006 18 -1.2
      vertex 51.599999999999994 85.19999999999999 -1.2
      vertex 60 0 -1.2
    endloop
  endfacet
  facet normal 0 0 1
    outer loop
      vertex 38.400000000000006 18 0
      vertex 28.799999999999997 86.4 0
      vertex 15.600000000000001 16.799999999999997 0
    endloop
  endfacet
  facet normal 0 0 -1
    outer loop
      vertex 15.600000000000001 16.799999999999997 -1.2
      vertex 28.799999999999997 86.4 -1.2
      vertex 38.400000000000006 18 -1.2
    endloop
  endfacet
  facet normal 0 0 1
    outer loop
      vertex 15.600000000000001 16.799999999999997 0
      vertex 6 84 0
      vertex 0 0 0
    endloop
  endfacet
  facet normal 0 0 -1
    outer loop
      vertex 0 0 -1.2
      vertex 6 84 -1.2
      vertex 15.600000000000001 16.799999999999997 -1.2
    endloop
  endfacet
  facet normal 0 0 1
    outer loop
      vertex 0 0 0
      vertex 60 0 0
      vertex 38.400000000000006 18 0
    endloop
  endfacet
  facet normal 0 0 -1
    outer loop
      vertex 38.400000000000006 18 -1.2
      vertex 60 0 -1.2
      vertex 0 0 -1.2
    endloop
  endfacet
  facet normal 0 0 1
    outer loop
      vertex 38.400000000000006 18 0
      vertex 15.600000000000001 16.799999999999997 0
      vertex 0 0 0
    endloop
  endfacet
  facet normal 0 0 -1
    outer loop
      vertex 0 0 -1.2
      vertex 15.600000000000001 16.799999999999997 -1.2
      vertex 38.400000000000006 18 -1.2
    endloop
  endfacet
  facet normal -0.997458699830735 0.07124704998790964 0
    outer loop
      vertex 0 0 0
      vertex 6 84 0
      vertex 6 84 -1.2
    endloop
  endfacet
  facet normal -0.997458699830735 0.07124704998790964 0
    outer loop
      vertex 6 84 -1.2
      vertex 0 0 -1.2
      vertex 0 0 0
    endloop
  endfacet
  facet normal 0.9899494936611665 0.1414213562373095 0
    outer loop
      vertex 6 84 0
      vertex 15.600000000000001 16.799999999999997 0
      vertex 15.600000000000001 16.799999999999997 -1.2
    endloop
  endfacet
  facet normal 0.9899494936611665 0.1414213562373095 0
    outer loop
      vertex 15.600000000000001 16.799999999999997 -1.2
      vertex 6 84 -1.2
      vertex 6 84 0
    endloop
  endfacet
  facet normal -0.9824865243069562 0.186333651161664 0
    outer loop
      vertex 15.600000000000001 16.799999999999997 0
      vertex 28.799999999999997 86.4 0
      vertex 28.799999999999997 86.4 -1.2
    endloop
  endfacet
  facet normal -0.9824865243069562 0.186333651161664 0
    outer loop
      vertex 28.799999999999997 86.4 -1.2
      vertex 15.600000000000001 16.799999999999997 -1.2
      vertex 15.600000000000001 16.799999999999997 0
    endloop
  endfacet
  facet normal 0.9902939771518443 0.1389886283721888 0
    outer loop
      vertex 28.799999999999997 86.4 0
      vertex 38.400000000000006 18 0
      vertex 38.400000000000006 18 -1.2
    endloop
  endfacet
  facet normal 0.9902939771518443 0.1389886283721888 0
    outer loop
      vertex 38.400000000000006 18 -1.2
      vertex 28.799999999999997 86.4 -1.2
      vertex 28.799999999999997 86.4 0
    endloop
  endfacet
  facet normal -0.9812488205210874 0.19274530403092774 0
    outer loop
      vertex 38.400000000000006 18 0
      vertex 51.599999999999994 85.19999999999999 0
      vertex 51.599999999999994 85.19999999999999 -1.2
    endloop
  endfacet
  facet normal -0.9812488205210874 0.19274530403092774 0
    outer loop
      vertex 51.599999999999994 85.19999999999999 -1.2
      vertex 38.400000000000006 18 -1.2
      vertex 38.400000000000006 18 0
    endloop
  endfacet
  facet normal 0.9951750001597837 0.09811584508617595 0
    outer loop
      vertex 51.599999999999994 85.19999999999999 0
      vertex 60 0 0
      vertex 60 0 -1.2
    endloop
  endfacet
  facet normal 0.9951750001597837 0.09811584508617595 0
    outer loop
      vertex 60 0 -1.2
      vertex 51.599999999999994 85.19999999999999 -1.2
      vertex 51.599999999999994 85.19999999999999 0
    endloop
  endfacet
  facet normal 0 -1 0
    outer loop
      vertex 60 0 0
      vertex 0 0 0
      vertex 0 0 -1.2
    endloop
  endfacet
  facet normal 0 -1 0
    outer loop
      vertex 0 0 -1.2
      vertex 60 0 -1.2
      vertex 60 0 0
    endloop
  endfacet
endsolid w
