{
  "accessors": [
    {
      "bufferView": 2,
      "componentType": 5126,
      "count": 476,
      "max": [
        3.9125165939331055,
        2.8543307781219482,
        0.18616701662540436
      ],
      "min": [
        -3.9125165939331055,
        -2.8543307781219482,
        -0.18616701662540436
      ],
      "type": "VEC3"
    },
    {
      "bufferView": 2,
      "byteOffset": 5712,
      "componentType": 5126,
      "count": 476,
      "max": [
        0.8644002676010132,
        0.8677668571472168,
        1.0
      ],
      "min": [
        -0.8667311072349548,
        -0.867766797542572,
        -0.9999998211860657
      ],
      "type": "VEC3"
    },
    {
      "bufferView": 3,
      "componentType": 5126,
      "count": 476,
      "max": [
        0.9999998807907104,
        0.9968302845954895,
        0.875430166721344,
        1.0
      ],
      "min": [
        -0.9991089701652527,
        -0.994745135307312,
        -0.7932102084159851,
        1.0
      ],
      "type": "VEC4"
    },
    {
      "bufferView": 1,
      "componentType": 5126,
      "count": 476,
      "max": [
        0.9937078952789307,
        0.99312424659729
      ],
      "min": [
        0.010898765176534653,
        0.0018094349652528763
      ],
      "type": "VEC2"
    },
    {
      "bufferView": 1,
      "byteOffset": 3808,
      "componentType": 5126,
      "count": 476,
      "max": [
        0.9937078952789307,
        0.99312424659729
      ],
      "min": [
        0.010898765176534653,
        0.0018094349652528763
      ],
      "type": "VEC2"
    },
    {
      "bufferView": 1,
      "byteOffset": 7616,
      "componentType": 5126,
      "count": 476,
      "max": [
        0.9937078952789307,
        0.99312424659729
      ],
      "min": [
        0.010898765176534653,
        0.0018094349652528763
      ],
      "type": "VEC2"
    },
    {
      "bufferView": 0,
      "componentType": 5125,
      "count": 2004,
      "type": "SCALAR"
    }
  ],
  "asset": {
    "extras": {
      "author": "plaggy (https://sketchfab.com/plaggy)",
      "license": "CC-BY-4.0 (http://creativecommons.org/licenses/by/4.0/)",
      "source": "https://sketchfab.com/3d-models/cc0-tray-85723e1819f14008ac93e07e4a3c7f98",
      "title": "CC0 - Tray"
    },
    "generator": "Sketchfab-14.1.2",
    "version": "2.0"
  },
  "bufferViews": [
    {
      "buffer": 0,
      "byteLength": 8016,
      "name": "floatBufferViews",
      "target": 34963
    },
    {
      "buffer": 0,
      "byteLength": 11424,
      "byteOffset": 8016,
      "byteStride": 8,
      "name": "floatBufferViews",
      "target": 34962
    },
    {
      "buffer": 0,
      "byteLength": 11424,
      "byteOffset": 19440,
      "byteStride": 12,
      "name": "floatBufferViews",
      "target": 34962
    },
    {
      "buffer": 0,
      "byteLength": 7616,
      "byteOffset": 30864,
      "byteStride": 16,
      "name": "floatBufferViews",
      "target": 34962
    }
  ],
  "buffers": [
    {
      "byteLength": 38480,
      "uri": "scene.bin"
    }
  ],
  "images": [
    {
      "uri": "textures/Tray_baseColor.png"
    },
    {
      "uri": "textures/Tray_metallicRoughness.png"
    },
    {
      "uri": "textures/Tray_normal.png"
    }
  ],
  "materials": [
    {
      "name": "Tray",
      "normalTexture": {
        "index": 2
      },
      "occlusionTexture": {
        "index": 1
      },
      "pbrMetallicRoughness": {
        "baseColorTexture": {
          "index": 0
        },
        "metallicRoughnessTexture": {
          "index": 1
        }
      }
    }
  ],
  "meshes": [
    {
      "name": "Tray_Tray_0",
      "primitives": [
        {
          "attributes": {
            "NORMAL": 1,
            "POSITION": 0,
            "TANGENT": 2,
            "TEXCOORD_0": 3,
            "TEXCOORD_1": 4,
            "TEXCOORD_2": 5
          },
          "indices": 6,
          "material": 0,
          "mode": 4
        }
      ]
    }
  ],
  "nodes": [
    {
      "children": [
        1
      ],
      "matrix": [
        1.0,
        0.0,
        0.0,
        0.0,
        0.0,
        2.220446049250313e-16,
        -1.0,
        0.0,
        0.0,
        1.0,
        2.220446049250313e-16,
        0.0,
        0.0,
        0.0,
        0.0,
        1.0
      ],
      "name": "Sketchfab_model"
    },
    {
      "children": [
        2
      ],
      "matrix": [
        0.02539999969303608,
        0.0,
        0.0,
        0.0,
        0.0,
        0.0,
        0.02539999969303608,
        0.0,
        0.0,
        -0.02539999969303608,
        0.0,
        0.0,
        0.0,
        0.0,
        0.0,
        1.0
      ],
      "name": "589c3bbe928d4122a85a2bfcfe8e9b10.fbx"
    },
    {
      "children": [
        3
      ],
      "name": "RootNode"
    },
    {
      "children": [
        4
      ],
      "matrix": [
        2.499631881713867,
        0.0,
        0.0,
        0.0,
        0.0,
        5.550297736331682e-16,
        -2.499631881713867,
        0.0,
        0.0,
        2.499631881713867,
        5.550297736331682e-16,
        0.0,
        0.0,
        0.0,
        0.0,
        1.0
      ],
      "name": "Tray"
    },
    {
      "mesh": 0,
      "name": "Tray_Tray_0"
    }
  ],
  "samplers": [
    {
      "magFilter": 9729,
      "minFilter": 9987,
      "wrapS": 10497,
      "wrapT": 10497
    }
  ],
  "scene": 0,
  "scenes": [
    {
      "name": "Sketchfab_Scene",
      "nodes": [
        0
      ]
    }
  ],
  "textures": [
    {
      "sampler": 0,
      "source": 0
    },
    {
      "sampler": 0,
      "source": 1
    },
    {
      "sampler": 0,
      "source": 2
    }
  ]
}
